<svg version="1.1" xmlns="http://www.w3.org/2000/svg" xmlns:xlink="http://www.w3.org/1999/xlink"
  width="1000" height="1000" viewBox="0,0,1000,1000">
<circle fill="khaki" cx="500" cy="500" r="500" />
<g transform="translate(350,350)">
<path fill="darkRed" d="M275,250 C275,250,225,200,225,200 C225,200,175,300,175,300 C175,300,125,300,125,300 C125,300,75,200,75,200 C75,200,75,50,75,50 C75,50,125,-50,125,-50 C125,-50,175,-50,175,-50 C175,-50,225,50,225,50 C225,50,225,150,225,150 C225,150,275,150,275,150 C275,150,275,0,275,0 C275,0,225,-100,225,-100 C225,-100,75,-100,75,-100 C75,-100,25,0,25,0 C25,0,25,250,25,250 C25,250,75,350,75,350 C75,350,225,350,225,350 C225,350,275,250,275,250Z M225,150 C225,150,225,100,225,100 C225,100,175,100,175,100 C175,100,175,50,175,50 C175,50,225,50,225,50 C225,50,225,0,225,0 C225,0,175,0,175,0 C175,0,125,50,125,50 C125,50,125,100,125,100 C125,100,175,150,175,150 C175,150,225,150,225,150Z"/>
</g>
</svg>