<svg xmlns="http://www.w3.org/2000/svg"
     width="100" height="100"
     viewBox="0 -20 100 120">
  <title>
    snowflake
  </title>
  <path fill='white' d="M 50 50
           L 60 30
           L 80 10
           L 50 20
           L 20 10
           L 40 30
           L 50 50" transform="rotate(0 50 50)"/>
  <path fill='white' d="M 50 50
           L 60 30
           L 80 10
           L 50 20
           L 20 10
           L 40 30
           L 50 50" transform="rotate(60 50 50)"/>
  <path fill='white' d="M 50 50
           L 60 30
           L 80 10
           L 50 20
           L 20 10
           L 40 30
           L 50 50" transform="rotate(120 50 50)"/>
  <path fill='white' d="M 50 50
           L 60 30
           L 80 10
           L 50 20
           L 20 10
           L 40 30
           L 50 50" transform="rotate(180 50 50)"/>
  <path fill='white' d="M 50 50
           L 60 30
           L 80 10
           L 50 20
           L 20 10
           L 40 30
           L 50 50" transform="rotate(240 50 50)"/>
  <path fill='white' d="M 50 50
           L 60 30
           L 80 10
           L 50 20
           L 20 10
           L 40 30
           L 50 50" transform="rotate(300 50 50)"/>
</svg>